# Blender v3.1.2 OBJ File: ''
# www.blender.org
mtllib untitled.mtl
o Cube
v 1.000000 1.000000 -1.000000
v 1.000000 -1.000000 -1.000000
v 1.000000 1.000000 1.000000
v 1.000000 -1.000000 1.000000
v -1.000000 1.000000 -1.000000
v -1.000000 -1.000000 -1.000000
v -1.000000 1.000000 1.000000
v -1.000000 -1.000000 1.000000
v 1.000000 0.000000 -1.000000
v -1.000000 0.000000 1.000000
v 1.000000 0.000000 1.000000
v -1.000000 0.000000 -1.000000
v -1.000000 0.500000 1.000000
v 1.000000 0.500000 -1.000000
v 1.000000 0.500000 1.000000
v -1.000000 0.500000 -1.000000
v 1.000000 -0.481481 -1.000000
v 1.000000 -0.481481 1.000000
v -1.000000 -0.481481 -1.000000
v -1.000000 -0.481481 1.000000
v 0.800000 0.450000 -0.800000
v 0.800000 0.050000 -0.800000
v 0.800000 0.450000 0.800000
v 0.800000 0.050000 0.800000
v -0.800000 0.450000 -0.800000
v -0.800000 0.050000 -0.800000
v -0.800000 0.050000 0.800000
v -0.800000 0.450000 0.800000
v 0.800000 1.000000 0.800000
v -0.800000 1.000000 0.800000
v 0.800000 1.000000 -0.800000
v -0.800000 1.000000 -0.800000
v 0.800000 1.400000 0.800000
v -0.800000 1.400000 0.800000
v 0.800000 1.400000 -0.800000
v -0.800000 1.400000 -0.800000
vt 0.625000 1.000000
vt 0.625000 0.750000
vt 0.625000 0.750000
vt 0.625000 1.000000
vt 0.562500 0.750000
vt 0.562500 1.000000
vt 0.562500 0.000000
vt 0.625000 0.000000
vt 0.625000 0.250000
vt 0.562500 0.250000
vt 0.125000 0.500000
vt 0.375000 0.500000
vt 0.375000 0.750000
vt 0.125000 0.750000
vt 0.562500 0.500000
vt 0.625000 0.500000
vt 0.439815 0.250000
vt 0.500000 0.250000
vt 0.500000 0.500000
vt 0.439815 0.500000
vt 0.500000 0.750000
vt 0.439815 0.750000
vt 0.439815 0.000000
vt 0.500000 0.000000
vt 0.500000 1.000000
vt 0.439815 1.000000
vt 0.562500 0.500000
vt 0.562500 0.250000
vt 0.562500 0.000000
vt 0.500000 0.500000
vt 0.500000 0.750000
vt 0.500000 1.000000
vt 0.375000 1.000000
vt 0.375000 0.000000
vt 0.375000 0.250000
vt 0.500000 0.250000
vt 0.562500 0.750000
vt 0.500000 0.000000
vt 0.562500 1.000000
vt 0.625000 0.750000
vt 0.625000 1.000000
vt 0.625000 0.000000
vt 0.625000 0.250000
vt 0.625000 0.500000
vt 0.625000 0.500000
vt 0.875000 0.500000
vt 0.875000 0.750000
vt 0.625000 0.250000
vt 0.625000 0.000000
vn 0.0000 1.0000 0.0000
vn 0.0000 0.0000 1.0000
vn -1.0000 0.0000 0.0000
vn 0.0000 -1.0000 0.0000
vn 1.0000 0.0000 0.0000
vn 0.0000 0.0000 -1.0000
vn 0.0000 -0.9701 -0.2425
vn -0.2425 -0.9701 0.0000
vn 0.2425 0.9701 0.0000
vn 0.0000 0.9701 0.2425
vn -0.2425 0.9701 0.0000
vn 0.0000 -0.9701 0.2425
vn 0.0000 0.9701 -0.2425
vn 0.2425 -0.9701 0.0000
usemtl Material
s off
f 7/1/1 3/2/1 29/3/1 30/4/1
f 15/5/2 3/2/2 7/1/2 13/6/2
f 13/7/3 7/8/3 5/9/3 16/10/3
f 6/11/4 2/12/4 4/13/4 8/14/4
f 14/15/5 1/16/5 3/2/5 15/5/5
f 16/10/6 5/9/6 1/16/6 14/15/6
f 19/17/6 12/18/6 9/19/6 17/20/6
f 17/20/5 9/19/5 11/21/5 18/22/5
f 20/23/3 10/24/3 12/18/3 19/17/3
f 18/22/2 11/21/2 10/25/2 20/26/2
f 16/10/7 14/15/7 21/27/7 25/28/7
f 13/7/8 16/10/8 25/28/8 28/29/8
f 11/21/9 9/19/9 22/30/9 24/31/9
f 10/25/10 11/21/10 24/31/10 27/32/10
f 4/13/2 18/22/2 20/26/2 8/33/2
f 8/34/3 20/23/3 19/17/3 6/35/3
f 2/12/5 17/20/5 18/22/5 4/13/5
f 6/35/6 19/17/6 17/20/6 2/12/6
f 26/36/6 25/28/6 21/27/6 22/30/6
f 22/30/5 21/27/5 23/37/5 24/31/5
f 27/38/3 28/29/3 25/28/3 26/36/3
f 24/31/2 23/37/2 28/39/2 27/32/2
f 12/18/11 10/24/11 27/38/11 26/36/11
f 15/5/12 13/6/12 28/39/12 23/37/12
f 9/19/13 12/18/13 26/36/13 22/30/13
f 14/15/14 15/5/14 23/37/14 21/27/14
f 30/4/2 29/3/2 33/40/2 34/41/2
f 5/9/1 7/8/1 30/42/1 32/43/1
f 3/2/1 1/16/1 31/44/1 29/3/1
f 1/16/1 5/9/1 32/43/1 31/44/1
f 35/45/1 36/46/1 34/47/1 33/40/1
f 31/44/6 32/43/6 36/48/6 35/45/6
f 29/3/5 31/44/5 35/45/5 33/40/5
f 32/43/3 30/42/3 34/49/3 36/48/3
